<svg width="32" height="32" viewBox="0 0 32 32" fill="none" xmlns="http://www.w3.org/2000/svg">
<g id="Frame 17" clip-path="url(#clip0_5_664)">
<g id="Union">
<path fill-rule="evenodd" clip-rule="evenodd" d="M0 -16H-16V0V16V32V48H0H16H32H48V32V16V0V-16H32H16H0ZM16 0C16 -8.83656 8.83656 -16 0 -16C-8.83656 -16 -16 -8.83656 -16 0C-16 8.83656 -8.83656 16 0 16C-8.83656 16 -16 23.1634 -16 32C-16 40.8366 -8.83656 48 0 48C8.83656 48 16 40.8366 16 32C16 40.8366 23.1634 48 32 48C40.8366 48 48 40.8366 48 32C48 23.1634 40.8366 16 32 16C40.8366 16 48 8.83656 48 0C48 -8.83656 40.8366 -16 32 -16C23.1634 -16 16 -8.83656 16 0ZM16 0C16 8.83656 23.1634 16 32 16C23.1634 16 16 23.1634 16 32C16 23.1634 8.83656 16 0 16C8.83656 16 16 8.83656 16 0Z" fill="white"/>
<path d="M-16 -16V-16.5H-16.5V-16H-16ZM-16 48H-16.5V48.5H-16V48ZM48 48V48.5H48.5V48H48ZM48 -16H48.5V-16.5H48V-16ZM-16 -15.5H0V-16.5H-16V-15.5ZM-15.5 0V-16H-16.5V0H-15.5ZM-16.5 0V16H-15.5V0H-16.5ZM-16.5 16V32H-15.5V16H-16.5ZM-16.5 32V48H-15.5V32H-16.5ZM-16 48.5H0V47.5H-16V48.5ZM0 48.5H16V47.5H0V48.5ZM16 48.5H32V47.5H16V48.5ZM32 48.5H48V47.5H32V48.5ZM48.5 48V32H47.5V48H48.5ZM48.5 32V16H47.5V32H48.5ZM48.5 16V0H47.5V16H48.5ZM48.5 0V-16H47.5V0H48.5ZM48 -16.5H32V-15.5H48V-16.5ZM32 -16.5H16V-15.5H32V-16.5ZM16 -16.5H0V-15.5H16V-16.5ZM0 -15.5C8.56041 -15.5 15.5 -8.56041 15.5 0H16.5C16.5 -9.1127 9.1127 -16.5 0 -16.5V-15.5ZM0 -16.5C-9.1127 -16.5 -16.5 -9.1127 -16.5 0H-15.5C-15.5 -8.56041 -8.56041 -15.5 0 -15.5V-16.5ZM0 15.5C-8.56041 15.5 -15.5 8.56041 -15.5 0H-16.5C-16.5 9.1127 -9.1127 16.5 0 16.5V15.5ZM0 15.5C-9.1127 15.5 -16.5 22.8873 -16.5 32H-15.5C-15.5 23.4396 -8.56041 16.5 0 16.5V15.5ZM-16.5 32C-16.5 41.1127 -9.1127 48.5 0 48.5V47.5C-8.56041 47.5 -15.5 40.5604 -15.5 32H-16.5ZM0 48.5C9.1127 48.5 16.5 41.1127 16.5 32H15.5C15.5 40.5604 8.56041 47.5 0 47.5V48.5ZM32 47.5C23.4396 47.5 16.5 40.5604 16.5 32H15.5C15.5 41.1127 22.8873 48.5 32 48.5V47.5ZM47.5 32C47.5 40.5604 40.5604 47.5 32 47.5V48.5C41.1127 48.5 48.5 41.1127 48.5 32H47.5ZM32 16.5C40.5604 16.5 47.5 23.4396 47.5 32H48.5C48.5 22.8873 41.1127 15.5 32 15.5V16.5ZM47.5 0C47.5 8.56041 40.5604 15.5 32 15.5V16.5C41.1127 16.5 48.5 9.1127 48.5 0H47.5ZM32 -15.5C40.5604 -15.5 47.5 -8.56041 47.5 0H48.5C48.5 -9.1127 41.1127 -16.5 32 -16.5V-15.5ZM16.5 0C16.5 -8.56041 23.4396 -15.5 32 -15.5V-16.5C22.8873 -16.5 15.5 -9.1127 15.5 0H16.5ZM32 15.5C23.4396 15.5 16.5 8.56041 16.5 0H15.5C15.5 9.1127 22.8873 16.5 32 16.5V15.5ZM16.5 32C16.5 23.4396 23.4396 16.5 32 16.5V15.5C22.8873 15.5 15.5 22.8873 15.5 32H16.5ZM16.5 32C16.5 22.8873 9.1127 15.5 0 15.5V16.5C8.56041 16.5 15.5 23.4396 15.5 32H16.5ZM15.5 0C15.5 8.56041 8.56041 15.5 0 15.5V16.5C9.1127 16.5 16.5 9.1127 16.5 0H15.5Z" fill="white"/>
</g>
</g>
<defs>
<clipPath id="clip0_5_664">
<rect width="32" height="32" fill="white"/>
</clipPath>
</defs>
</svg>
